<svg xmlns="http://www.w3.org/2000/svg" version="1.1" xmlns:xlink="http://www.w3.org/1999/xlink" xmlns:svgjs="http://svgjs.dev/svgjs" width="1500" height="1500" viewBox="0 0 1500 1500"><rect width="1500" height="1500" fill="#d9d9d9"></rect><g transform="matrix(0.6666666666666666,0,0,0.6666666666666666,249.39393939393938,681.4764114693588)"><svg viewBox="0 0 396 54" data-background-color="#d9d9d9" preserveAspectRatio="xMidYMid meet" height="204" width="1500" xmlns="http://www.w3.org/2000/svg" xmlns:xlink="http://www.w3.org/1999/xlink"><g id="tight-bounds" transform="matrix(1,0,0,1,0.2400000000000091,0.20789544598989096)"><svg viewBox="0 0 395.52 53.58420910802019" height="53.58420910802019" width="395.52"><g><svg viewBox="0 0 541.9015437821786 73.41566959441549" height="53.58420910802019" width="395.52"><g><rect width="6.303508310796148" height="70.24787487850135" x="412.0213306565344" y="1.5838973579570705" fill="#284b63" opacity="1" stroke-width="0" stroke="transparent" fill-opacity="1" class="rect-yte-0" data-fill-palette-color="primary" rx="1%" id="yte-0" data-palette-color="#284b63"></rect></g><g><rect width="6.303508310796148" height="70.24787487850135" x="426.5755042955978" y="1.5838973579570705" fill="#284b63" opacity="1" stroke-width="0" stroke="transparent" fill-opacity="1" class="rect-yte-1" data-fill-palette-color="primary" rx="1%" id="yte-1" data-palette-color="#284b63"></rect></g><g transform="matrix(1,0,0,1,0,1.758643315366271)"><svg viewBox="0 0 395.52 69.89838296368295" height="69.89838296368295" width="395.52"><g id="textblocktransform"><svg viewBox="0 0 395.52 69.89838296368295" height="69.89838296368295" width="395.52" id="textblock"><g><svg viewBox="0 0 395.52 69.89838296368295" height="69.89838296368295" width="395.52"><g transform="matrix(1,0,0,1,0,0)"><svg width="395.52" viewBox="1.78 -37.5 282.89000000000004 50" height="69.89838296368295" data-palette-color="#284b63"><path d="M15.78-25L15.78-21.5 9.8-21.5 9.78 0 6.28 0 6.3-21.5 1.78-21.5 1.78-25 6.3-25 6.28-32.85 9.78-32.85 9.8-25 15.78-25ZM42.05-15.48L42.05-15.48 42.05 0 38.55 0 38.55-14.78Q38.55-16.82 37.55-18.5 36.55-20.18 34.87-21.18 33.2-22.18 31.15-22.18L31.15-22.18Q29.12-22.18 27.43-21.18 25.75-20.18 24.75-18.5 23.75-16.82 23.75-14.78L23.75-14.78 23.75 0 20.25 0 20.25-37.5 23.75-37.5 23.75-21.55Q25.07-23.45 27.2-24.58 29.32-25.7 31.82-25.7L31.82-25.7Q34.65-25.7 36.97-24.33 39.3-22.95 40.67-20.63 42.05-18.3 42.05-15.48ZM67.22-20.33L67.09-25 70.59-25 70.59 0 67.09 0 66.97-4.65Q65.75-2.27 63.55-0.81 61.34 0.65 58.3 0.65L58.3 0.65Q55.55 0.65 53.15-0.39 50.75-1.43 48.92-3.25 47.09-5.08 46.07-7.48 45.05-9.88 45.05-12.63L45.05-12.63Q45.05-15.33 46.06-17.7 47.07-20.08 48.86-21.88 50.65-23.68 53.01-24.69 55.37-25.7 58.07-25.7L58.07-25.7Q61.2-25.7 63.52-24.21 65.84-22.73 67.22-20.33L67.22-20.33ZM58.22-2.75L58.22-2.75Q60.9-2.75 62.82-4.06 64.75-5.38 65.78-7.6 66.82-9.83 66.82-12.5L66.82-12.5Q66.82-15.25 65.77-17.46 64.72-19.68 62.8-20.98 60.87-22.28 58.22-22.28L58.22-22.28Q55.57-22.28 53.38-20.96 51.2-19.65 49.91-17.43 48.62-15.2 48.62-12.5L48.62-12.5Q48.62-9.78 49.95-7.56 51.27-5.35 53.46-4.05 55.65-2.75 58.22-2.75ZM88.37-25L88.37-21.5 82.39-21.5 82.37 0 78.87 0 78.89-21.5 74.37-21.5 74.37-25 78.89-25 78.87-32.85 82.37-32.85 82.39-25 88.37-25ZM104.42 0L92.84 0 92.84-35 104.42-35Q108.04-35 111.22-33.64 114.39-32.27 116.79-29.86 119.19-27.45 120.55-24.29 121.92-21.13 121.92-17.5L121.92-17.5Q121.92-13.88 120.55-10.71 119.19-7.55 116.79-5.14 114.39-2.73 111.22-1.36 108.04 0 104.42 0L104.42 0ZM96.34-31.5L96.34-3.5 104.42-3.5Q107.31-3.5 109.85-4.59 112.39-5.68 114.31-7.6 116.24-9.53 117.33-12.06 118.42-14.6 118.42-17.5L118.42-17.5Q118.42-20.4 117.33-22.94 116.24-25.48 114.3-27.4 112.37-29.33 109.84-30.41 107.31-31.5 104.42-31.5L104.42-31.5 96.34-31.5ZM137.09 0.65L137.09 0.65Q133.64 0.65 130.8-1.13 127.96-2.9 126.28-5.89 124.59-8.88 124.59-12.5L124.59-12.5Q124.59-15.25 125.56-17.64 126.54-20.03 128.25-21.84 129.96-23.65 132.24-24.68 134.51-25.7 137.09-25.7L137.09-25.7Q139.86-25.7 142.2-24.6 144.54-23.5 146.23-21.53 147.91-19.55 148.78-16.9 149.64-14.25 149.49-11.18L149.49-11.18 128.29-11.18Q128.59-8.8 129.8-6.93 131.01-5.05 132.9-3.96 134.79-2.88 137.09-2.85L137.09-2.85Q139.59-2.85 141.6-4.15 143.61-5.45 144.84-7.73L144.84-7.73 148.39-6.9Q146.89-3.58 143.86-1.46 140.84 0.65 137.09 0.65ZM128.19-14L128.19-14 145.96-14Q145.79-16.32 144.55-18.26 143.31-20.2 141.36-21.36 139.41-22.53 137.09-22.53L137.09-22.53Q134.76-22.53 132.84-21.39 130.91-20.25 129.69-18.31 128.46-16.38 128.19-14ZM173.89-25.08L164.76 0 160.31 0 151.19-25.08 154.91-25.08 162.54-4.1 170.16-25.08 173.89-25.08ZM172.46-35L199.93-35 199.93-31.5 187.93-31.5 187.93 0 184.43 0 184.43-31.5 172.46-31.5 172.46-35ZM212.01 0.65L212.01 0.65Q208.56 0.65 205.72-1.13 202.88-2.9 201.19-5.89 199.51-8.88 199.51-12.5L199.51-12.5Q199.51-15.25 200.48-17.64 201.46-20.03 203.17-21.84 204.88-23.65 207.16-24.68 209.43-25.7 212.01-25.7L212.01-25.7Q214.78-25.7 217.12-24.6 219.46-23.5 221.14-21.53 222.83-19.55 223.69-16.9 224.56-14.25 224.41-11.18L224.41-11.18 203.21-11.18Q203.51-8.8 204.72-6.93 205.93-5.05 207.82-3.96 209.71-2.88 212.01-2.85L212.01-2.85Q214.51-2.85 216.52-4.15 218.53-5.45 219.76-7.73L219.76-7.73 223.31-6.9Q221.81-3.58 218.78-1.46 215.76 0.65 212.01 0.65ZM203.11-14L203.11-14 220.88-14Q220.71-16.32 219.47-18.26 218.23-20.2 216.28-21.36 214.33-22.53 212.01-22.53L212.01-22.53Q209.68-22.53 207.76-21.39 205.83-20.25 204.61-18.31 203.38-16.38 203.11-14ZM232.18 0L228.68 0 228.68-25 232.18-25 232.18-21.55Q233.5-23.45 235.63-24.58 237.75-25.7 240.25-25.7L240.25-25.7Q241.7-25.7 243.05-25.33L243.05-25.33 241.63-21.85Q240.58-22.18 239.58-22.18L239.58-22.18Q237.55-22.18 235.87-21.18 234.18-20.18 233.18-18.5 232.18-16.82 232.18-14.78L232.18-14.78 232.18 0ZM249.8 0L246.3 0 246.3-25 249.8-25 249.8-21.55Q251.13-23.45 253.25-24.58 255.38-25.7 257.88-25.7L257.88-25.7Q259.33-25.7 260.68-25.33L260.68-25.33 259.25-21.85Q258.2-22.18 257.2-22.18L257.2-22.18Q255.18-22.18 253.49-21.18 251.8-20.18 250.8-18.5 249.8-16.82 249.8-14.78L249.8-14.78 249.8 0ZM273.57-4.83L280.97-25 284.67-25 271 12.5 267.27 12.5 271.82 0 262.85-25 266.67-25 273.57-4.83Z" opacity="1" transform="matrix(1,0,0,1,0,0)" fill="#284b63" class="wordmark-text-0" data-fill-palette-color="primary" id="text-0"></path></svg></g></svg></g></svg></g></svg></g><g transform="matrix(1,0,0,1,449.38034326292836,0)"><svg viewBox="0 0 92.5212005192502 73.41566959441549" height="73.41566959441549" width="92.5212005192502"><g><svg xmlns="http://www.w3.org/2000/svg" xmlns:xlink="http://www.w3.org/1999/xlink" version="1.1" x="0" y="0" viewBox="2.3 12.100000000000001 95.40000000000002 75.69999999999999" enable-background="new 0 0 100 100" xml:space="preserve" height="73.41566959441549" width="92.5212005192502" class="icon-icon-0" data-fill-palette-color="accent" id="icon-0"><path d="M84.7 25.7C84.2 23.5 83.4 21.3 82.3 19.2 85.5 20.4 88.1 22.7 89.7 25.7zM72.2 19.2C69 20.4 66.3 22.7 64.6 25.7H69.6C70.2 23.4 71.1 21.2 72.2 19.2M76.1 18.3C74.6 20.6 73.4 23.1 72.7 25.7H81.7C81 23.1 79.9 20.6 78.4 18.3 78 18.3 77.6 18.2 77.1 18.2 76.8 18.3 76.5 18.3 76.1 18.3M15.4 66.2V72H77.2V57C79.8 57 82.4 56.6 84.9 55.8V71.6C84.9 72.6 85.2 73.6 85.9 74.3L89.8 79.1C90.1 79.5 90.3 79.9 90.3 80.4V82.6C90.3 85.5 88 87.8 85.1 87.8H7.5C4.6 87.8 2.3 85.5 2.3 82.6V80.4C2.3 79.9 2.5 79.5 2.8 79.1L6.8 74.2C7.4 73.4 7.8 72.5 7.8 71.5V32.6C7.8 28.4 11.2 24.9 15.5 24.9H54C53.2 27.4 52.8 30 52.8 32.6H15.4zM38 80.3C38 81.8 39.2 83 40.7 83H52C53.5 83 54.7 81.8 54.7 80.3V79.7H38zM68.8 32.8C68.8 31.4 68.9 30 69.1 28.6H63.4C63 29.9 62.8 31.2 62.8 32.6S63 35.3 63.4 36.5H69C68.9 35.3 68.8 34 68.8 32.8M64.6 39.5C66.2 42.4 68.8 44.7 71.9 46 70.8 43.9 70.1 41.8 69.5 39.5zM71.7 32.8C71.7 34.1 71.8 35.3 72 36.6H82.3C82.5 35.2 82.6 33.9 82.6 32.5 82.6 31.2 82.5 30 82.3 28.7H72.1C71.8 30 71.7 31.4 71.7 32.8M91.7 18.1C99.7 26.1 99.7 39.1 91.7 47 85 53.7 74.7 54.8 66.9 50.2 63.8 52.5 60.5 52.9 58.2 52.6 57.4 52.5 57.3 51.4 58 51.1 60.1 50.1 61.4 48 62.2 46.3L62 46.1C54.9 38.1 55.2 25.8 62.9 18.1 70.7 10.1 83.7 10.1 91.7 18.1M89.4 20.4C86.1 17.1 81.8 15.3 77.2 15.3S68.3 17.1 65 20.4C61.8 23.7 60 28 60 32.6S61.8 41.5 65.1 44.8 72.7 49.9 77.3 49.9 86.2 48.1 89.5 44.8 94.6 37.2 94.6 32.6C94.5 28 92.7 23.7 89.4 20.4M75.9 46.9C76.3 46.9 76.8 47 77.2 47H78.2C79.7 44.7 80.9 42.2 81.6 39.6H72.5C73.3 42.1 74.4 44.6 75.9 46.9M85.5 32.4C85.5 33.8 85.4 35.2 85.2 36.5H91C91.4 35.2 91.6 33.9 91.6 32.6 91.6 31.2 91.4 29.9 91 28.6H85.3C85.4 29.9 85.5 31.1 85.5 32.4M82.1 46.1C85.4 44.9 88.1 42.5 89.8 39.5H84.7C84.1 41.8 83.2 44 82.1 46.1" fill="#284b63" data-fill-palette-color="accent"></path></svg></g></svg></g></svg></g><defs></defs></svg><rect width="395.52" height="53.58420910802019" fill="none" stroke="none" visibility="hidden"></rect></g></svg></g></svg>